{"title":"Bol Bachchan 2012 Hindi DvDrip Xvid...Hon3y","uid":7657241,"size":738824490,"categoryP":"video","categoryS":"movies","magnet":"?xt=urn:btih:eefd0047e8dc573c0964257249280e4910a964c6&amp;dn=Bol+Bachchan+2012+Hindi+DvDrip+Xvid...Hon3y&amp;tr=udp%3A%2F%2Ftracker.openbittorrent.com%3A80&amp;tr=udp%3A%2F%2Fopen.demonii.com%3A1337&amp;tr=udp%3A%2F%2Ftracker.coppersurfer.tk%3A6969&amp;tr=udp%3A%2F%2Fexodus.desync.com%3A6969","seeders":0,"leechers":1,"uploader":"honey8ee","files":-1,"time":1348193882,"description":" &lt;a href=&quot;http://en.wikipedia.org/wiki/Bol_Bachchan&quot; rel=&quot;nofollow&quot; target=&quot;_NEW&quot;&gt;http://en.wikipedia.org/wiki/Bol_Bachchan&lt;/a&gt;\n &lt;a href=&quot;\nhttp://www.imdb.com/title/tt1728986/&quot; rel=&quot;nofollow&quot; target=&quot;_NEW&quot;&gt;\nhttp://www.imdb.com/title/tt1728986/&lt;/a&gt;\n\nSource                                   : DVD9\nFormat                                   : AVI\nFormat/Info                              : Audio Video Interleave\nFile size                                : 698 MiB\nDuration                                 : 2h 23mn\nOverall bit rate                         : 680 Kbps\n\nVideo\nID                                       : 0\nFormat                                   : MPEG-4 Visual\nFormat profile                           : Advanced Simple@L5\nFormat settings, BVOP                    : 2\nFormat settings, QPel                    : Yes\nFormat settings, GMC                     : 3 warppoints\nFormat settings, Matrix                  : Default (H.263)\nCodec ID                                 : XVID\nCodec ID/Hint                            : XviD\nDuration                                 : 2h 23mn\nBit rate                                 : 579 Kbps\nWidth                                    : 640 pixels\nHeight                                   : 272 pixels\nDisplay aspect ratio                     : 2.35:1\nFrame rate                               : 23.976 fps\nColor space                              : YUV\nChroma subsampling                       : 4:2:0\nBit depth                                : 8 bits\nScan type                                : Progressive\nCompression mode                         : Lossy\nBits/(Pixel*Frame)                       : 0.139\nStream size                              : 594 MiB (85%)\nWriting library                          : XviD 1.2.1 (UTC 2008-12-04)\n\nAudio\nID                                       : 1\nCodec ID/Hint                            : MP3\nDuration                                 : 2h 23mn\nBit rate mode                            : Constant\nBit rate                                 : 96.0 Kbps\nChannel(s)                               : 2 channels\nSampling rate                            : 32.0 KHz\nCompression mode                         : Lossy\nStream size                              : 98.5 MiB (14%)\n &lt;a href=&quot;\nhttp://www.shotpix.com/images/04827819275797219513.png&quot; rel=&quot;nofollow&quot; target=&quot;_NEW&quot;&gt;\nhttp://www.shotpix.com/images/04827819275797219513.png&lt;/a&gt;\n &lt;a href=&quot;\nhttp://www.shotpix.com/images/55293530762416630103.png&quot; rel=&quot;nofollow&quot; target=&quot;_NEW&quot;&gt;\nhttp://www.shotpix.com/images/55293530762416630103.png&lt;/a&gt;\n &lt;a href=&quot;\nhttp://www.shotpix.com/images/29561904041146877009.png&quot; rel=&quot;nofollow&quot; target=&quot;_NEW&quot;&gt;\nhttp://www.shotpix.com/images/29561904041146877009.png&lt;/a&gt;\n &lt;a href=&quot;\nhttp://www.shotpix.com/images/92889860141288899179.png&quot; rel=&quot;nofollow&quot; target=&quot;_NEW&quot;&gt;\nhttp://www.shotpix.com/images/92889860141288899179.png&lt;/a&gt;\n &lt;a href=&quot;\nhttp://www.shotpix.com/images/13901646560285486949.png&quot; rel=&quot;nofollow&quot; target=&quot;_NEW&quot;&gt;\nhttp://www.shotpix.com/images/13901646560285486949.png&lt;/a&gt;\n &lt;a href=&quot;\nhttp://www.shotpix.com/images/83779795523764541073.png&quot; rel=&quot;nofollow&quot; target=&quot;_NEW&quot;&gt;\nhttp://www.shotpix.com/images/83779795523764541073.png&lt;/a&gt;\n &lt;a href=&quot;\nhttp://www.shotpix.com/images/36337445896616244607.png&quot; rel=&quot;nofollow&quot; target=&quot;_NEW&quot;&gt;\nhttp://www.shotpix.com/images/36337445896616244607.png&lt;/a&gt;\n &lt;a href=&quot;\nhttp://www.shotpix.com/images/61290210209718066345.png&quot; rel=&quot;nofollow&quot; target=&quot;_NEW&quot;&gt;\nhttp://www.shotpix.com/images/61290210209718066345.png&lt;/a&gt;\n\n\n                                   Check the sample First\n","torrent":{"xt":"urn:btih:eefd0047e8dc573c0964257249280e4910a964c6","amp;dn":"Bol+Bachchan+2012+Hindi+DvDrip+Xvid...Hon3y","amp;tr":["udp%3A%2F%2Ftracker.openbittorrent.com%3A80","udp%3A%2F%2Fopen.demonii.com%3A1337","udp%3A%2F%2Ftracker.coppersurfer.tk%3A6969","udp%3A%2F%2Fexodus.desync.com%3A6969"],"infoHash":"eefd0047e8dc573c0964257249280e4910a964c6","infoHashBuffer":{"type":"Buffer","data":[238,253,0,71,232,220,87,60,9,100,37,114,73,40,14,73,16,169,100,198]},"announce":[],"urlList":[]}}